<svg width="40" height="40" viewBox="0 0 40 40" fill="none" xmlns="http://www.w3.org/2000/svg">
<path fill-rule="evenodd" clip-rule="evenodd" d="M19.9544 22.84C14.3133 21.5477 18.3479 13.2943 12.7601 11.1759C18.0487 13.2213 16.0339 17.875 19.9963 22.1938C23.9586 17.875 21.9439 13.2213 27.2325 11.1759C21.6446 13.2943 25.6792 21.5477 20.0381 22.84H19.9544ZM20.0001 21.1203C19.9494 20.026 19.678 17.8633 18.3936 16.5057C18.3936 16.5057 18.8589 16.6595 19.4599 17.8972C19.4599 17.8972 18.7626 13.1328 16.2736 11.7843C13.7846 10.4359 6.04502 9.62035 3.47362 4C3.47362 4 2.59747 8.84648 5.53531 11.7205C4.39415 11.3831 3.80201 10.7877 3.80201 10.7877C5.52516 15.3957 11.0293 13.7842 11.0293 13.7842C11.0293 13.7842 10.7276 10.4972 5.5315 10.1037C5.5315 10.1037 11.6037 9.40018 13.9558 15.2459C13.9558 15.2459 12.6168 12.7028 10.0987 11.6345C11.0699 12.2247 13.8467 14.7404 14.6392 17.6626C15.4317 20.5849 16.3078 25.2789 19.9456 24.307H20.0724C23.7101 25.2763 24.585 20.5836 25.3787 17.6626C26.1725 14.7417 28.948 12.2247 29.9193 11.6345C27.4011 12.7028 26.0622 15.2459 26.0622 15.2459C28.4142 9.40018 34.4864 10.1037 34.4864 10.1037C29.2878 10.4945 28.9886 13.7842 28.9886 13.7842C28.9886 13.7842 34.4864 15.401 36.2159 10.7877C36.2159 10.7877 35.6288 11.3831 34.4826 11.7205C37.4205 8.84648 36.5443 4 36.5443 4C33.9729 9.62035 26.2333 10.4346 23.7443 11.7843C21.2554 13.1341 20.558 17.8972 20.558 17.8972C21.159 16.6595 21.6243 16.5057 21.6243 16.5057C20.3399 17.8659 20.0686 20.0234 20.0178 21.1203H20.0001Z" fill="#333333"/>
<path fill-rule="evenodd" clip-rule="evenodd" d="M33.2133 13.7386C33.1524 13.7542 32.7606 13.8558 32.237 13.9705C31.1502 14.1182 30.046 14.0519 28.9834 13.775C29.0017 13.6364 29.0327 13.4999 29.076 13.3673L29.5578 13.2227C29.5578 13.2227 30.595 14.076 33.2196 13.736L33.2133 13.7386Z" fill="#1A1A1A"/>
<path fill-rule="evenodd" clip-rule="evenodd" d="M28.9773 13.7723C28.9773 13.7723 29.2791 10.4852 34.4751 10.0918C33.9045 11.2539 32.5377 10.4188 31.4194 11.2487C32.2917 11.1419 32.7596 11.379 32.7596 11.379C31.0643 11.5614 28.9773 13.7683 28.9773 13.7683V13.7723ZM29.5339 11.7959C29.6607 11.7347 29.7799 11.6773 29.9143 11.6226C29.7428 11.7303 29.5773 11.8477 29.4185 11.9744C29.4578 11.9157 29.4984 11.8558 29.5453 11.7959H29.5339Z" fill="#1A1A1A"/>
<path fill-rule="evenodd" clip-rule="evenodd" d="M26.4981 11.5239C26.6686 11.427 26.8443 11.34 27.0243 11.2633C26.9495 11.2972 26.7453 11.3936 26.4981 11.5239ZM27.0395 11.2568C22.0032 13.3413 23.9153 17.9312 20.0037 22.2005L19.9922 21.8097C19.9922 21.8097 19.8287 18.395 21.6063 16.5124C21.6063 16.5124 20.8709 18.5852 20.5184 20.1603C20.5184 20.1603 21.6393 18.7272 21.9259 17.7149C22.2124 16.7026 23.616 11.8014 27.056 11.2568H27.0395Z" fill="#1A1A1A"/>
<path fill-rule="evenodd" clip-rule="evenodd" d="M20.5546 17.8662L20.5388 17.8965L20.5415 17.8833L20.5546 17.8662Z" fill="#00FF00"/>
<path fill-rule="evenodd" clip-rule="evenodd" d="M20.0609 24.3036L20.052 23.4568C20.052 23.4568 22.2075 23.6379 23.2105 21.6329C23.2105 21.6329 23.4057 22.4393 22.9188 23.6223C22.2151 24.3101 21.2984 24.6358 20.0609 24.3062V24.3036ZM34.4749 10.1029C34.4749 10.1029 28.4027 9.3994 26.0507 15.2451C26.0507 15.2451 27.3896 12.702 29.9078 11.6337C28.9365 12.2239 26.1597 14.7396 25.3672 17.6619C24.8436 19.5913 24.2844 22.2908 22.9188 23.6249C25.8592 18.3563 23.3702 7.80475 34.4749 10.1029Z" fill="#1A1A1A"/>
<path fill-rule="evenodd" clip-rule="evenodd" d="M25.1479 20.7916C25.1479 20.7916 26.1319 17.4473 31.6576 16.745C31.6576 16.745 28.5118 16.0428 25.6982 18.4596C26.2513 17.4917 27.0639 16.7079 28.0389 16.2018C27.5773 16.25 27.06 16.3216 26.478 16.4233C33.7916 12.1696 44.3422 22.5686 33.5786 30.9379C33.5786 30.9379 38.6377 26.6934 36.1221 21.2424C36.1221 21.2424 36.3401 22.3237 35.7658 23.1966C35.7658 23.1966 36.4226 21.9459 35.2332 19.8523C35.2332 19.8523 35.9167 21.5668 35.36 22.7471C35.36 22.7471 35.6326 19.3885 31.0921 19.5565C31.0921 19.5565 33.0067 20.2601 33.0891 22.7328C33.0891 22.7328 32.2142 20.3161 29.0139 20.4424C29.0139 20.4424 30.3947 19.9643 31.6525 20.6248C31.6525 20.6248 31.0097 19.5709 28.645 19.6412C28.645 19.6412 30.8461 18.1795 33.3757 19.5005C29.5325 17.3417 25.3166 20.5428 25.1581 20.7929L25.1479 20.7916Z" fill="#1A1A1A"/>
<path fill-rule="evenodd" clip-rule="evenodd" d="M35.3497 22.7351C35.3611 22.5384 35.4764 19.3921 31.0817 19.555C31.0817 19.555 32.9963 20.2585 33.0788 22.7312C33.0788 22.7312 32.2039 20.3145 29.0036 20.4409C29.0036 20.4409 30.3843 19.9628 31.6422 20.6233C31.6422 20.6233 30.9993 19.5693 28.6346 19.6397C28.6346 19.6397 30.8357 18.1779 33.3653 19.499C33.3653 19.499 33.3869 19.013 32.8809 18.4658C32.8809 18.4658 35.5677 19.968 35.3497 22.7351ZM33.3653 19.5055C31.6739 18.5544 29.9089 18.643 28.4495 19.0612L28.5889 18.785C28.5889 18.785 31.6079 18.0659 33.3653 19.5055Z" fill="#333333"/>
<path fill-rule="evenodd" clip-rule="evenodd" d="M25.1479 20.7916C25.1479 20.7916 25.773 18.6693 28.825 17.4512C28.825 17.4512 26.686 18.7983 26.246 19.5357C26.246 19.5357 28.4827 18.4296 30.0651 18.7644C27.4366 18.9338 25.2659 20.6079 25.153 20.7864L25.1479 20.7916Z" fill="#333333"/>
<path fill-rule="evenodd" clip-rule="evenodd" d="M28.035 16.2017H27.7662H27.7523H27.7003H27.6863H27.6077H27.5938H27.4581H27.4454H27.3541H27.344H27.2831H27.2552H27.169C26.9475 16.233 26.7142 16.2703 26.4691 16.3137C33.5595 12.1903 43.6917 21.8377 34.494 30.0559C37.7412 26.6412 37.8819 23.6239 37.8819 23.6239L37.5269 24.2844C37.9073 17.8211 31.6525 16.6355 31.6525 16.6355C31.6525 16.6355 28.5067 15.9333 25.6931 18.3501C26.2462 17.3822 27.0588 16.5984 28.0337 16.0923L28.035 16.2017ZM31.6575 16.745C33.3807 17.0394 34.6258 17.386 35.6846 18.3448C33.9437 15.9815 29.8203 15.0018 27.3757 17.042C27.3757 17.042 29.5515 16.2395 31.6575 16.7424V16.745Z" fill="#333333"/>
<path fill-rule="evenodd" clip-rule="evenodd" d="M28.4104 20.5479C35.0798 22.407 29.2156 33.3689 22.4612 26.9421C22.4612 26.9421 24.8284 28.8963 27.2477 28.3608C27.2477 28.3608 25.0453 28.7686 22.8099 26.6672C22.8099 26.6672 24.5064 28.452 27.8297 27.5531C27.8297 27.5531 28.1784 27.342 29.3512 27.6508C29.3512 27.6508 28.962 27.1948 28.1137 27.0958C29.8888 25.9532 29.8888 22.8291 28.4015 21.4259C28.4015 21.4259 30.145 22.4448 30.1247 24.2075C30.2084 22.4786 29.7215 21.6136 28.4015 20.5596L28.4104 20.5479Z" fill="#333333"/>
<path fill-rule="evenodd" clip-rule="evenodd" d="M29.6542 27.7798C28.9302 27.7459 27.2451 28.3543 27.2451 28.3543C27.1855 28.3622 27.1259 28.37 27.0676 28.3752C26.5021 28.4208 24.6724 28.4064 22.8225 26.662C22.9569 26.7923 24.6471 28.3999 27.8335 27.5388C27.8335 27.5388 28.1821 27.3277 29.355 27.6365C29.355 27.6365 28.9657 27.1805 28.1175 27.0815C29.8926 25.9389 29.8926 22.8148 28.4053 21.4116C28.4053 21.4116 30.1487 22.4304 30.1284 24.1931C30.2645 24.5575 30.3246 24.9472 30.3047 25.337C30.3047 25.337 31.2785 21.4624 28.4028 20.54C29.7227 21.5992 30.2096 22.4643 30.1259 24.1879C30.1538 25.9116 29.2497 26.8991 29.2497 26.8991C29.5896 27.1597 29.6466 27.7655 29.6466 27.772L29.6542 27.7798Z" fill="#1A1A1A"/>
<path fill-rule="evenodd" clip-rule="evenodd" d="M20.3398 25.4258C20.3398 25.4258 21.557 26.4798 21.6077 26.9292C21.6584 27.3787 21.7345 30.056 20.0076 32.1405V27.9545C20.1803 27.1216 20.2901 26.2761 20.336 25.4258H20.3398ZM20.7582 26.1085C20.7582 26.1085 20.8951 26.726 20.8672 26.9696C20.7542 26.8104 20.6529 26.6428 20.5642 26.468C20.5274 26.3547 20.6162 25.999 20.7582 26.1085Z" fill="#333333"/>
<path fill-rule="evenodd" clip-rule="evenodd" d="M20.3118 25.375C20.3118 25.375 21.6102 26.5202 21.652 26.8654C21.6939 27.2107 21.6736 28.0523 21.4327 29.1388C21.5595 28.4431 21.3059 27.4452 21.3059 27.4452C21.245 27.2276 20.5819 26.8758 20.5819 26.8758C20.4373 27.4165 20.01 28.1409 20.01 28.1409V27.9559C20.1627 27.1033 20.2631 26.2418 20.3105 25.3763L20.3118 25.375ZM20.7581 26.1085C20.7581 26.1085 20.895 26.726 20.8671 26.9696C20.7541 26.8104 20.6528 26.6428 20.5641 26.4681C20.5273 26.3547 20.6161 25.9991 20.7581 26.1085Z" fill="#1A1A1A"/>
<path fill-rule="evenodd" clip-rule="evenodd" d="M20.0115 32.1426C20.6474 31.5667 21.146 30.8484 21.469 30.0431C21.7919 29.2378 21.9305 28.3671 21.8741 27.498C21.8741 27.498 22.3813 28.8895 22.3521 29.606C22.3521 29.606 22.6222 28.3423 22.4117 27.7378C22.4117 27.7378 23.5896 30.9479 21.675 31.9172C21.675 31.9172 22.4738 30.7082 22.0313 29.4419C21.5381 30.6587 21.2959 31.4078 20.0115 32.14V32.1426Z" fill="#1A1A1A"/>
<path fill-rule="evenodd" clip-rule="evenodd" d="M22.3445 29.3554C22.3526 29.4385 22.3551 29.5221 22.3521 29.6055L22.3445 29.3554ZM22.3521 29.6055C22.3521 29.6055 22.6222 28.3418 22.4117 27.7373C22.4117 27.7373 23.5897 30.9474 21.675 31.9167C21.675 31.9167 22.4739 30.7077 22.0314 29.4414C22.1554 29.6361 22.2404 29.8542 22.2816 30.083C22.3227 30.3118 22.3191 30.5468 22.271 30.7742C22.271 30.7742 22.427 30.5748 22.3521 29.6016V29.6055Z" fill="#333333"/>
<path fill-rule="evenodd" clip-rule="evenodd" d="M32.2991 14.9914C32.2991 14.9914 36.2069 13.5831 36.9702 11.1689C36.9702 11.1689 36.903 13.2834 35.1304 14.6227C35.8683 15.3536 43.0158 22.7901 35.8075 29.4084C40.291 24.4929 39.037 17.67 32.2991 14.9914Z" fill="#1A1A1A"/>
<path fill-rule="evenodd" clip-rule="evenodd" d="M32.2991 14.9914C32.2991 14.9914 36.2069 13.5831 36.9702 11.1689C36.9702 11.1689 36.2094 13.8071 34.1439 14.594C34.1439 14.594 39.7052 18.7735 38.2369 24.9319C39.1485 20.974 37.1388 16.9131 32.2991 14.9888V14.9914Z" fill="#333333"/>
<path fill-rule="evenodd" clip-rule="evenodd" d="M6.78686 13.7386C6.84773 13.7542 7.23952 13.8558 7.76318 13.9705C8.84994 14.1182 9.95414 14.0519 11.0167 13.775C10.9984 13.6364 10.9675 13.4999 10.9242 13.3673L10.4424 13.2227C10.4424 13.2227 9.40518 14.076 6.78052 13.736L6.78686 13.7386Z" fill="#1A1A1A"/>
<path fill-rule="evenodd" clip-rule="evenodd" d="M11.0227 13.7723C11.0227 13.7723 10.721 10.4852 5.5249 10.0918C6.09548 11.2539 7.46233 10.4188 8.58066 11.2487C7.70831 11.1419 7.24044 11.379 7.24044 11.379C8.93569 11.5614 11.0227 13.7683 11.0227 13.7683V13.7723ZM10.4661 11.7959C10.3393 11.7347 10.2201 11.6773 10.0857 11.6226C10.2572 11.7303 10.4227 11.8477 10.5815 11.9744C10.5422 11.9157 10.5016 11.8558 10.4547 11.7959H10.4661Z" fill="#1A1A1A"/>
<path fill-rule="evenodd" clip-rule="evenodd" d="M13.5015 11.5239C13.331 11.427 13.1553 11.34 12.9753 11.2633C13.0501 11.2972 13.2543 11.3936 13.5015 11.5239ZM12.9601 11.2568C17.9964 13.3413 16.0843 17.9312 19.9959 22.2005L20.0074 21.8097C20.0074 21.8097 20.1709 18.395 18.3933 16.5124C18.3933 16.5124 19.1287 18.5852 19.4812 20.1603C19.4812 20.1603 18.3603 18.7272 18.0737 17.7149C17.7872 16.7026 16.3836 11.8014 12.9436 11.2568H12.9601Z" fill="#1A1A1A"/>
<path fill-rule="evenodd" clip-rule="evenodd" d="M19.4446 17.8662L19.4604 17.8965L19.4577 17.8833L19.4446 17.8662Z" fill="#00FF00"/>
<path fill-rule="evenodd" clip-rule="evenodd" d="M19.939 24.3036L19.9478 23.4568C19.9478 23.4568 17.7923 23.6379 16.7894 21.6329C16.7894 21.6329 16.5941 22.4393 17.081 23.6223C17.7847 24.3101 18.7015 24.6358 19.939 24.3062V24.3036ZM5.5249 10.1029C5.5249 10.1029 11.5971 9.3994 13.9492 15.2451C13.9492 15.2451 12.6102 12.702 10.0921 11.6337C11.0633 12.2239 13.8401 14.7396 14.6326 17.6619C15.1563 19.5913 15.7154 22.2908 17.081 23.6249C14.1406 18.3563 16.6296 7.80475 5.5249 10.1029Z" fill="#1A1A1A"/>
<path fill-rule="evenodd" clip-rule="evenodd" d="M14.8522 20.7916C14.8522 20.7916 13.8683 17.4473 8.34256 16.745C8.34256 16.745 11.4883 16.0428 14.3019 18.4596C13.7487 17.4913 12.9356 16.7074 11.96 16.2018C12.4228 16.25 12.9401 16.3216 13.5221 16.4233C6.2086 12.1696 -4.34202 22.5686 6.42161 30.9379C6.42161 30.9379 1.36248 26.6934 3.8781 21.2424C3.8781 21.2424 3.66002 22.3237 4.2344 23.1966C4.2344 23.1966 3.57759 21.9459 4.76693 19.8523C4.76693 19.8523 4.08351 21.5668 4.64014 22.7471C4.64014 22.7471 4.36753 19.3885 8.90806 19.5565C8.90806 19.5565 6.99346 20.2601 6.91104 22.7328C6.91104 22.7328 7.78593 20.3161 10.9862 20.4424C10.9862 20.4424 9.60543 19.9643 8.34635 20.6248C8.34635 20.6248 8.99047 19.5709 11.3552 19.6412C11.3552 19.6412 9.15404 18.1795 6.62448 19.5005C10.4676 17.3417 14.6836 20.5428 14.8421 20.7929L14.8522 20.7916Z" fill="#1A1A1A"/>
<path fill-rule="evenodd" clip-rule="evenodd" d="M4.65004 22.7351C4.63863 22.5384 4.52325 19.3921 8.91797 19.555C8.91797 19.555 7.00337 20.2585 6.92095 22.7312C6.92095 22.7312 7.79584 20.3145 10.9961 20.4409C10.9961 20.4409 9.61535 19.9628 8.35628 20.6233C8.35628 20.6233 9.00039 19.5693 11.3651 19.6397C11.3651 19.6397 9.16395 18.1779 6.63439 19.499C6.63439 19.499 6.61284 19.013 7.11876 18.4658C7.11876 18.4658 4.43196 19.968 4.65004 22.7351ZM6.63439 19.5055C8.32584 18.5544 10.0908 18.643 11.5502 19.0612L11.4108 18.785C11.4108 18.785 8.39177 18.0659 6.63439 19.5055Z" fill="#333333"/>
<path fill-rule="evenodd" clip-rule="evenodd" d="M14.8522 20.7916C14.8522 20.7916 14.2271 18.6693 11.1751 17.4512C11.1751 17.4512 13.3141 18.7983 13.7541 19.5357C13.7541 19.5357 11.5175 18.4296 9.93506 18.7644C12.5635 18.9338 14.7343 20.6079 14.8471 20.7864L14.8522 20.7916Z" fill="#333333"/>
<path fill-rule="evenodd" clip-rule="evenodd" d="M11.9638 16.2017H12.2339H12.2478H12.2998H12.3138H12.3936H12.4076H12.5433H12.5559H12.6409H12.651H12.7119H12.7398H12.826C13.0483 16.233 13.2816 16.2703 13.5259 16.3137C6.43553 12.1903 -3.69665 21.8377 5.50106 30.0559C2.25384 26.6412 2.1131 23.6239 2.1131 23.6239L2.46812 24.2844C2.08774 17.8211 8.34255 16.6355 8.34255 16.6355C8.34255 16.6355 11.4883 15.9333 14.3019 18.3501C13.7487 17.3818 12.9356 16.5979 11.96 16.0923L11.9638 16.2017ZM8.34255 16.745C6.6194 17.0394 5.37427 17.386 4.31553 18.3448C6.05643 15.9815 10.1798 15.0018 12.6244 17.042C12.6244 17.042 10.4486 16.2395 8.34255 16.7424V16.745Z" fill="#333333"/>
<path fill-rule="evenodd" clip-rule="evenodd" d="M11.5896 20.5479C4.92014 22.407 10.7844 33.3689 17.5388 26.9421C17.5388 26.9421 15.1715 28.8963 12.7523 28.3608C12.7523 28.3608 14.9547 28.7686 17.1901 26.6672C17.1901 26.6672 15.4936 28.452 12.1703 27.5531C12.1703 27.5531 11.8216 27.342 10.6487 27.6508C10.6487 27.6508 11.038 27.1948 11.8863 27.0958C10.1111 25.9532 10.1111 22.8291 11.5984 21.4259C11.5984 21.4259 9.85501 22.4448 9.87529 24.2075C9.79161 22.4786 10.2785 21.6136 11.5984 20.5596L11.5896 20.5479Z" fill="#333333"/>
<path fill-rule="evenodd" clip-rule="evenodd" d="M10.3458 27.7798C11.0698 27.7459 12.7549 28.3543 12.7549 28.3543C12.8145 28.3621 12.8741 28.37 12.9324 28.3752C13.4979 28.4208 15.3275 28.4064 17.1775 26.662C17.0431 26.7923 15.3529 28.3999 12.1665 27.5388C12.1665 27.5388 11.8179 27.3277 10.645 27.6365C10.645 27.6365 11.0343 27.1805 11.8825 27.0815C10.1074 25.9389 10.1074 22.8148 11.5947 21.4116C11.5947 21.4116 9.85126 22.4304 9.87155 24.1931C9.73545 24.5575 9.67541 24.9472 9.6953 25.337C9.6953 25.337 8.71519 21.4598 11.5896 20.5479C10.2697 21.607 9.78279 22.4721 9.86647 24.1957C9.83858 25.9194 10.7426 26.9069 10.7426 26.9069C10.4028 27.1675 10.3458 27.7733 10.3458 27.7798Z" fill="#1A1A1A"/>
<path fill-rule="evenodd" clip-rule="evenodd" d="M19.6602 25.4258C19.6602 25.4258 18.443 26.4798 18.3922 26.9292C18.3415 27.3787 18.2654 30.056 19.9924 32.1405V27.9545C19.8197 27.1216 19.7099 26.2761 19.664 25.4258H19.6602ZM19.2418 26.1085C19.2418 26.1085 19.1048 26.726 19.1327 26.9696C19.2458 26.8104 19.3471 26.6428 19.4358 26.468C19.4725 26.3547 19.3838 25.999 19.2418 26.1085Z" fill="#333333"/>
<path fill-rule="evenodd" clip-rule="evenodd" d="M19.6881 25.375C19.6881 25.375 18.3897 26.5202 18.3478 26.8654C18.306 27.2107 18.3263 28.0523 18.5672 29.1388C18.4404 28.4431 18.694 27.4452 18.694 27.4452C18.7548 27.2276 19.418 26.8758 19.418 26.8758C19.5613 27.4165 19.9898 28.1409 19.9898 28.1409V27.9559C19.8371 27.1033 19.7368 26.2418 19.6893 25.3763L19.6881 25.375ZM19.2417 26.1085C19.2417 26.1085 19.1048 26.726 19.1327 26.9696C19.2457 26.8104 19.347 26.6428 19.4357 26.4681C19.4725 26.3547 19.3838 25.9991 19.2417 26.1085Z" fill="#1A1A1A"/>
<path fill-rule="evenodd" clip-rule="evenodd" d="M19.9887 32.1426C19.3528 31.5667 18.8542 30.8484 18.5312 30.0431C18.2083 29.2378 18.0697 28.3671 18.1261 27.498C18.1261 27.498 17.6189 28.8895 17.648 29.606C17.648 29.606 17.378 28.3423 17.5885 27.7378C17.5885 27.7378 16.4105 30.9479 18.3251 31.9172C18.3251 31.9172 17.5263 30.7082 17.9688 29.4419C18.4621 30.6587 18.7043 31.4078 19.9887 32.14V32.1426Z" fill="#1A1A1A"/>
<path fill-rule="evenodd" clip-rule="evenodd" d="M17.6557 29.3554C17.6476 29.4385 17.6451 29.5221 17.648 29.6055L17.6557 29.3554ZM17.648 29.6055C17.648 29.6055 17.378 28.3418 17.5885 27.7373C17.5885 27.7373 16.4105 30.9474 18.3251 31.9167C18.3251 31.9167 17.5263 30.7077 17.9688 29.4414C17.8448 29.6361 17.7598 29.8542 17.7186 30.083C17.6775 30.3118 17.6811 30.5468 17.7292 30.7742C17.7292 30.7742 17.5732 30.5748 17.648 29.6016V29.6055Z" fill="#333333"/>
<path fill-rule="evenodd" clip-rule="evenodd" d="M20.0002 32.4039C20.0002 32.4039 18.9338 31.9974 18.6599 31.4346C18.6599 31.4346 18.5331 33.5569 18.9059 34.3855C19.1895 34.9657 19.5534 35.5006 19.9862 35.9736L19.9989 35.9996L20.0141 35.9736C20.447 35.5006 20.8108 34.9657 21.0944 34.3855C21.4634 33.5569 21.3404 31.4346 21.3404 31.4346C21.0665 31.9948 20.0002 32.4039 20.0002 32.4039Z" fill="#1A1A1A"/>
<path fill-rule="evenodd" clip-rule="evenodd" d="M18.6599 31.4316C18.6599 31.4316 18.5331 33.5539 18.9059 34.3825C19.1895 34.9627 19.5534 35.4977 19.9862 35.9707C19.1988 35.0795 18.9719 33.6569 18.9719 33.6569L19.7491 33.9265C18.8172 33.2673 18.6637 31.4316 18.6637 31.4316H18.6599Z" fill="#333333"/>
<path fill-rule="evenodd" clip-rule="evenodd" d="M7.70086 14.9914C7.70086 14.9914 3.79304 13.5831 3.02974 11.1689C3.02974 11.1689 3.09694 13.2834 4.86953 14.6227C4.13159 15.3536 -3.01586 22.7901 4.19244 29.4084C-0.291037 24.4929 0.962972 17.67 7.70086 14.9914Z" fill="#1A1A1A"/>
<path fill-rule="evenodd" clip-rule="evenodd" d="M7.70078 14.9914C7.70078 14.9914 3.79296 13.5831 3.02965 11.1689C3.02965 11.1689 3.79041 13.8071 5.8559 14.594C5.8559 14.594 0.294682 18.7735 1.76297 24.9319C0.851313 20.974 2.86101 16.9131 7.70078 14.9888V14.9914Z" fill="#333333"/>
<path fill-rule="evenodd" clip-rule="evenodd" d="M21.3402 31.4316C21.3402 31.4316 21.467 33.5539 21.0942 34.3825C20.8107 34.9627 20.4468 35.4977 20.0139 35.9707C20.8 35.0795 21.0283 33.6569 21.0283 33.6569L20.251 33.9265C21.183 33.2673 21.3364 31.4316 21.3364 31.4316H21.3402Z" fill="#333333"/>
<path fill-rule="evenodd" clip-rule="evenodd" d="M26.1546 22.097C26.6109 22.1104 27.0531 22.2629 27.4247 22.5353C27.7964 22.8077 28.0808 23.1875 28.2416 23.6265C28.2416 23.6265 27.95 22.652 27.718 22.2716C27.718 22.2716 29.147 23.8102 28.4496 25.6941C27.7522 27.578 25.016 27.7174 23.5388 25.9325C24.0592 26.2774 24.6368 26.5211 25.2429 26.6517C24.8147 26.4774 24.4472 26.175 24.1884 25.7835C23.9295 25.3921 23.7911 24.9297 23.7911 24.4564C23.791 24.2466 23.8179 24.0376 23.871 23.835C23.9283 24.0935 24.0475 24.3332 24.2177 24.5325C24.3879 24.7318 24.6037 24.8844 24.8457 24.9763C25.0878 25.0683 25.3483 25.0969 25.6037 25.0594C25.8592 25.0219 26.1015 24.9195 26.3087 24.7616C26.516 24.6036 26.6817 24.3951 26.7907 24.1548C26.8998 23.9145 26.9488 23.6501 26.9334 23.3854C26.918 23.1208 26.8386 22.8642 26.7024 22.639C26.5662 22.4138 26.3775 22.2271 26.1533 22.0957L26.1546 22.097Z" fill="#0058D0"/>
<path fill-rule="evenodd" clip-rule="evenodd" d="M13.8454 22.097C13.3891 22.1104 12.9469 22.2629 12.5753 22.5353C12.2036 22.8077 11.9192 23.1875 11.7584 23.6265C11.7584 23.6265 12.05 22.652 12.282 22.2716C12.282 22.2716 10.853 23.8102 11.5504 25.6941C12.2478 27.578 14.984 27.7174 16.4612 25.9325C15.9408 26.2774 15.3632 26.5211 14.7571 26.6517C15.1853 26.4774 15.5527 26.175 15.8116 25.7835C16.0705 25.3921 16.2089 24.9297 16.2089 24.4564C16.209 24.2466 16.1821 24.0376 16.129 23.835C16.0717 24.0935 15.9525 24.3332 15.7823 24.5325C15.6121 24.7318 15.3963 24.8844 15.1543 24.9763C14.9122 25.0683 14.6517 25.0969 14.3963 25.0594C14.1408 25.0219 13.8985 24.9195 13.6913 24.7616C13.484 24.6036 13.3183 24.3951 13.2093 24.1548C13.1002 23.9145 13.0512 23.6501 13.0666 23.3854C13.082 23.1208 13.1614 22.8642 13.2976 22.639C13.4338 22.4138 13.6225 22.2271 13.8467 22.0957L13.8454 22.097Z" fill="#0058D0"/>
<path fill-rule="evenodd" clip-rule="evenodd" d="M30.9285 9.12398C33.2108 8.05567 35.3802 6.50532 36.5265 4C36.5265 4 37.0666 6.99648 35.8735 9.66726C36.6951 7.77687 36.1917 5.43832 36.1917 5.43832C35.3435 7.57363 30.9285 9.12529 30.9285 9.12529V9.12398Z" fill="#3AD5F0"/>
<path fill-rule="evenodd" clip-rule="evenodd" d="M34.4649 11.7199C35.606 11.3825 36.1982 10.7871 36.1982 10.7871C35.6821 12.1642 34.8301 12.9863 33.888 13.4605C33.3144 13.5449 32.7326 13.5523 32.1572 13.4826C34.934 13.5308 35.5807 11.4594 35.5807 11.4594L34.4624 11.7199H34.4649Z" fill="#3AD5F0"/>
<path fill-rule="evenodd" clip-rule="evenodd" d="M21.6064 16.5092C21.6064 16.5092 21.141 16.6629 20.54 17.9006C20.54 17.9006 21.2374 13.1362 23.7264 11.7878C24.2114 11.5432 24.7147 11.3389 25.2315 11.1768C24.1106 11.6458 22.0616 12.916 21.2209 16.1144L21.0941 16.5704C21.0941 16.5704 21.406 16.3906 21.6013 16.5092H21.6064Z" fill="#3AD5F0"/>
<path fill-rule="evenodd" clip-rule="evenodd" d="M20.0458 22.8398C22.7009 22.2314 23.2157 20.0804 23.596 17.7588C23.3425 20.3306 22.5703 22.9414 20.0458 23.0547V24.308H19.9418V23.0547L19.8721 22.9336L19.9431 22.845L20.0458 22.8398Z" fill="#3AD5F0"/>
<path fill-rule="evenodd" clip-rule="evenodd" d="M33.0677 22.7022C32.9548 22.426 31.9937 20.3233 29.0103 20.4418C29.0103 20.4418 31.9101 19.6679 33.0677 22.7022Z" fill="#3AD5F0"/>
<path fill-rule="evenodd" clip-rule="evenodd" d="M25.1479 20.791C25.3038 20.3579 25.5316 19.9559 25.8212 19.6029L25.5499 20.2139C25.5499 20.2139 27.2642 19.268 28.5473 19.0283C26.6454 19.5494 25.238 20.6477 25.1479 20.791Z" fill="#3AD5F0"/>
<path fill-rule="evenodd" clip-rule="evenodd" d="M28.0352 16.2026C27.5128 16.259 26.9925 16.3329 26.4744 16.4241C27.5155 15.8175 28.685 15.4812 29.8814 15.4443C28.9263 15.583 27.9886 15.8267 27.0842 16.1713L28.0352 16.2026ZM27.9274 17.1289C27.1137 17.4382 26.3582 17.89 25.6946 18.4643C26.2477 17.4964 27.0602 16.7126 28.0352 16.2065C28.0352 16.2065 26.7292 16.9387 26.1612 17.9601C26.1612 17.9601 27.3822 17.2018 27.9274 17.1328V17.1289Z" fill="#3AD5F0"/>
<path fill-rule="evenodd" clip-rule="evenodd" d="M23.2307 27.0193C23.1419 26.9476 23.0519 26.8707 22.9631 26.79C23.4386 27.1808 25.0755 28.2895 27.8359 27.543C27.8359 27.543 28.1846 27.3319 29.3574 27.6407C29.3574 27.6407 29.152 27.2499 28.4204 27.0284C28.4204 27.0284 30.7839 25.1146 29.0455 22.2783C29.8443 23.8417 29.5882 26.1399 28.1199 27.0857C28.9682 27.1847 29.3574 27.6407 29.3574 27.6407C28.8502 27.5222 28.0641 27.6889 28.0641 27.6889C25.3837 28.3234 23.8152 27.4609 23.2281 27.0206L23.2307 27.0193Z" fill="#3AD5F0"/>
<path fill-rule="evenodd" clip-rule="evenodd" d="M20.0991 32.066C20.7074 31.4883 21.1825 30.7783 21.4896 29.9878C21.7967 29.1974 21.9281 28.3464 21.8743 27.4971C21.8743 27.4971 21.8958 27.5557 21.9288 27.6547C22.0847 28.198 22.0898 29.1438 22.0898 29.1438L21.9351 29.0578C21.7335 30.715 20.16 32.0439 20.1105 32.0843L20.1004 32.066H20.0991Z" fill="#3AD5F0"/>
<path fill-rule="evenodd" clip-rule="evenodd" d="M32.299 14.9906C32.299 14.9906 34.7462 14.1086 36.1447 12.5439C36.1447 12.5439 35.2039 13.9393 32.848 14.9372C32.848 14.9372 35.3675 15.8244 36.8941 18.3884C35.867 16.9879 34.3315 15.7984 32.2939 14.9893L32.299 14.9906Z" fill="#3AD5F0"/>
<path fill-rule="evenodd" clip-rule="evenodd" d="M9.07153 9.12398C6.78922 8.05567 4.61975 6.50532 3.47352 4C3.47352 4 2.93338 6.99648 4.12652 9.66726C3.30489 7.78078 3.80827 5.43571 3.80827 5.43571C4.65652 7.57103 9.07153 9.12268 9.07153 9.12268V9.12398Z" fill="#3AD5F0"/>
<path fill-rule="evenodd" clip-rule="evenodd" d="M5.53505 11.7199C4.3939 11.3825 3.80176 10.7871 3.80176 10.7871C4.31781 12.1642 5.16987 12.9863 6.11196 13.4605C6.68551 13.5449 7.2673 13.5523 7.84272 13.4826C5.0659 13.5308 4.41925 11.4594 4.41925 11.4594L5.53757 11.7199H5.53505Z" fill="#3AD5F0"/>
<path fill-rule="evenodd" clip-rule="evenodd" d="M18.3934 16.5092C18.3934 16.5092 18.8587 16.6629 19.4597 17.9006C19.4597 17.9006 18.7624 13.1362 16.2734 11.7878C15.7883 11.5432 15.2851 11.3389 14.7683 11.1768C15.8892 11.6458 17.9382 12.916 18.7788 16.1144L18.9056 16.5704C18.9056 16.5704 18.5937 16.3906 18.3985 16.5092H18.3934Z" fill="#3AD5F0"/>
<path fill-rule="evenodd" clip-rule="evenodd" d="M19.9531 23.0495V22.8398C17.298 22.2314 16.7832 20.0804 16.4028 17.7588C16.6564 20.3306 17.4273 22.9414 19.9531 23.0547V23.0495Z" fill="#3AD5F0"/>
<path fill-rule="evenodd" clip-rule="evenodd" d="M6.93262 22.7022C7.04546 22.426 8.00657 20.3233 10.9901 20.4418C10.9901 20.4418 8.09026 19.6679 6.93262 22.7022Z" fill="#3AD5F0"/>
<path fill-rule="evenodd" clip-rule="evenodd" d="M14.852 20.791C14.6962 20.3579 14.4684 19.9559 14.1787 19.6029L14.4501 20.2139C14.4501 20.2139 12.7358 19.268 11.4526 19.0283C13.3546 19.5494 14.762 20.6477 14.852 20.791Z" fill="#3AD5F0"/>
<path fill-rule="evenodd" clip-rule="evenodd" d="M11.9638 16.2026C12.4879 16.259 13.0086 16.3329 13.5259 16.4241C12.4847 15.8175 11.3152 15.4812 10.1189 15.4443C11.0739 15.5832 12.0116 15.8269 12.916 16.1713L11.9638 16.2026ZM12.0728 17.1289C12.8866 17.4382 13.642 17.89 14.3057 18.4643C13.7525 17.496 12.9394 16.7121 11.9638 16.2065C11.9638 16.2065 13.271 16.9387 13.8391 17.9601C13.8391 17.9601 12.618 17.2018 12.0728 17.1328V17.1289Z" fill="#3AD5F0"/>
<path fill-rule="evenodd" clip-rule="evenodd" d="M16.7695 27.0193C16.8583 26.9476 16.9483 26.8707 17.037 26.79C16.5616 27.1808 14.9246 28.2895 12.1643 27.543C12.1643 27.543 11.8156 27.3319 10.6428 27.6407C10.6428 27.6407 10.8482 27.2499 11.5798 27.0284C11.5798 27.0284 9.21632 25.1146 10.9547 22.2783C10.1559 23.8417 10.412 26.1399 11.8803 27.0857C11.032 27.1847 10.6428 27.6407 10.6428 27.6407C11.1499 27.5222 11.9361 27.6889 11.9361 27.6889C14.6165 28.3234 16.185 27.4609 16.772 27.0206L16.7695 27.0193Z" fill="#3AD5F0"/>
<path fill-rule="evenodd" clip-rule="evenodd" d="M19.9887 28.1396L19.7947 29.948L19.9887 32.1432H20.0115L20.2042 29.948L20.0115 28.1396H19.9887Z" fill="#3AD5F0"/>
<path fill-rule="evenodd" clip-rule="evenodd" d="M19.9013 32.066C19.293 31.4883 18.818 30.7783 18.5108 29.9878C18.2037 29.1974 18.0723 28.3464 18.1262 27.4971C18.1262 27.4971 18.1046 27.5557 18.0717 27.6547C17.9157 28.198 17.9106 29.1438 17.9106 29.1438L18.0653 29.0578C18.2669 30.715 19.8405 32.0439 19.8899 32.0843L19.9001 32.066H19.9013Z" fill="#3AD5F0"/>
<path fill-rule="evenodd" clip-rule="evenodd" d="M7.70077 14.9906C7.70077 14.9906 5.25363 14.1086 3.85508 12.5439C3.85508 12.5439 4.7959 13.9393 7.15175 14.9372C7.15175 14.9372 4.63233 15.8244 3.10571 18.3884C4.13275 16.9879 5.66825 15.7984 7.70584 14.9893L7.70077 14.9906Z" fill="#3AD5F0"/>
<path fill-rule="evenodd" clip-rule="evenodd" d="M19.8479 31.9873H20.1446L20.0013 32.4016L19.8479 31.9873Z" fill="#3AD5F0"/>
<path fill-rule="evenodd" clip-rule="evenodd" d="M26.1546 22.0967C26.5826 22.1093 26.9986 22.2446 27.3557 22.4873C27.7128 22.7299 27.9968 23.0702 28.1757 23.4698C28.2739 23.8542 28.2849 24.2566 28.208 24.646C28.131 25.0354 27.9681 25.4015 27.7319 25.7161C27.4957 26.0306 27.1923 26.2854 26.8453 26.4606C26.4982 26.6358 26.1166 26.7269 25.7299 26.7269C25.42 26.727 25.1127 26.6687 24.8233 26.5549C24.9607 26.5976 25.1004 26.632 25.2417 26.6578C24.7169 26.443 24.2873 26.0375 24.0345 25.5184C23.7818 24.9992 23.7236 24.4028 23.8711 23.8425C23.928 24.1015 24.047 24.3419 24.2172 24.5418C24.3874 24.7417 24.6035 24.8948 24.8459 24.9871C25.0882 25.0795 25.3492 25.1083 25.6051 25.0709C25.861 25.0334 26.1038 24.9309 26.3114 24.7727C26.519 24.6145 26.6849 24.4055 26.7941 24.1648C26.9033 23.924 26.9522 23.6591 26.9365 23.3939C26.9208 23.1288 26.841 22.8719 26.7042 22.6465C26.5675 22.4212 26.3781 22.2344 26.1534 22.1032L26.1546 22.0967Z" fill="#3AD5F0"/>
<path fill-rule="evenodd" clip-rule="evenodd" d="M13.8456 22.0967C13.4176 22.1093 13.0016 22.2446 12.6445 22.4873C12.2874 22.7299 12.0034 23.0702 11.8245 23.4698C11.7263 23.8542 11.7153 24.2566 11.7923 24.646C11.8692 25.0354 12.0321 25.4015 12.2683 25.7161C12.5045 26.0306 12.8079 26.2854 13.155 26.4606C13.502 26.6358 13.8836 26.7269 14.2703 26.7269C14.5802 26.727 14.8875 26.6687 15.1769 26.5549C15.0395 26.5976 14.8998 26.632 14.7585 26.6578C15.2833 26.443 15.7129 26.0375 15.9657 25.5184C16.2184 24.9992 16.2766 24.4028 16.1291 23.8425C16.0722 24.1015 15.9532 24.3419 15.783 24.5418C15.6128 24.7417 15.3967 24.8948 15.1543 24.9871C14.912 25.0795 14.651 25.1083 14.3951 25.0709C14.1392 25.0334 13.8964 24.9309 13.6888 24.7727C13.4812 24.6145 13.3153 24.4055 13.2061 24.1648C13.097 23.924 13.048 23.6591 13.0637 23.3939C13.0794 23.1288 13.1592 22.8719 13.296 22.6465C13.4327 22.4212 13.6221 22.2344 13.8468 22.1032L13.8456 22.0967Z" fill="#3AD5F0"/>
<path fill-rule="evenodd" clip-rule="evenodd" d="M35.7646 29.928C35.7646 29.928 34.4447 33.1251 28.427 32.2535C28.427 32.2535 31.7769 32.3656 32.9815 31.4718C32.9815 31.4718 28.659 32.6808 26.43 31.6555C24.2009 30.6302 22.4778 27.7471 22.4778 27.7471C22.4778 27.7471 25.1405 31.5656 28.0707 31.7246C28.0707 31.7246 26.0192 31.5943 23.695 28.7033C23.695 28.7033 27.0183 32.3134 32.2423 30.965C32.0522 31.1731 31.8185 31.3339 31.5588 31.4353C33.2161 31.223 34.3356 31.1605 35.7646 29.9319V29.928Z" fill="#1A1A1A"/>
<path fill-rule="evenodd" clip-rule="evenodd" d="M23.804 28.8018C24.9254 29.8535 26.2845 30.6013 27.7581 30.9773C29.2317 31.3534 30.7734 31.3458 32.2434 30.9553C30.4848 31.9754 27.4113 31.9363 27.3783 31.935C28.5118 31.965 28.9125 31.4986 28.9125 31.4986C25.3458 30.8198 23.804 28.8018 23.804 28.8018Z" fill="#333333"/>
<path fill-rule="evenodd" clip-rule="evenodd" d="M4.23535 29.928C4.23535 29.928 5.55529 33.1251 11.573 32.2535C11.573 32.2535 8.22305 32.3656 7.0185 31.4718C7.0185 31.4718 11.3409 32.6808 13.57 31.6555C15.7991 30.6302 17.5222 27.7471 17.5222 27.7471C17.5222 27.7471 14.8595 31.5656 11.9293 31.7246C11.9293 31.7246 13.9808 31.5943 16.305 28.7033C16.305 28.7033 12.9817 32.3134 7.75771 30.965C7.9481 31.1733 8.18229 31.3342 8.4424 31.4353C6.78392 31.223 5.66433 31.1605 4.23535 29.9319V29.928Z" fill="#1A1A1A"/>
<path fill-rule="evenodd" clip-rule="evenodd" d="M16.1963 28.8018C15.0749 29.8535 13.7158 30.6013 12.2422 30.9773C10.7685 31.3534 9.2269 31.3458 7.75684 30.9553C9.51548 31.9754 12.589 31.9363 12.622 31.935C11.4884 31.965 11.0877 31.4986 11.0877 31.4986C14.6545 30.8198 16.1963 28.8018 16.1963 28.8018Z" fill="#333333"/>
</svg>
