<svg width="48" height="48" viewBox="0 0 48 48" fill="none" xmlns="http://www.w3.org/2000/svg">
<path d="M44.9481 23.8549C44.9481 35.295 35.6555 44.57 24.1931 44.57C12.7306 44.57 3.43874 35.295 3.43874 23.8549C3.43874 12.4149 12.7314 3.13904 24.1931 3.13904C35.6548 3.13904 44.9481 12.4141 44.9481 23.8549Z" fill="white"/>
<path d="M24.1931 5.30705C13.9306 5.30705 5.61085 13.6118 5.61085 23.8549C5.61085 34.098 13.9306 42.402 24.1931 42.402C34.4555 42.402 42.776 34.098 42.776 23.8549C42.776 13.6118 34.4563 5.30705 24.1931 5.30705ZM24.1931 37.5219C20.5615 37.5217 17.0788 36.0817 14.511 33.5187C11.9431 30.9557 10.5004 27.4796 10.5002 23.8549C10.5002 16.3066 16.6327 10.1872 24.1931 10.1872C25.9913 10.1872 27.772 10.5407 29.4334 11.2276C31.0948 11.9144 32.6043 12.9212 33.8759 14.1903C35.1475 15.4595 36.1562 16.9662 36.8443 18.6245C37.5325 20.2827 37.8867 22.06 37.8867 23.8549C37.8867 31.401 31.7557 37.5219 24.1931 37.5219Z" fill="#39B54A"/>
<path d="M46.4684 23.9955L48 21.2048L45.865 18.8426L46.7129 15.7746L44.0896 13.967L44.2032 10.7872L41.2331 9.63249L40.6092 6.51234L37.4521 6.07254L36.1219 3.17985L32.9481 3.47834L30.988 0.969522L27.9687 1.99043L25.4816 0L22.7796 1.68816L19.9026 0.32796L17.6638 2.59496L14.5431 1.92544L12.8881 4.64584L9.70069 4.71688L8.71647 7.74408L5.63205 8.54736L5.37539 11.7212L2.55899 13.2128L3.04202 16.3579L0.646562 18.4572L1.84353 21.4043L0 23.9955L1.8458 26.5897L0.648833 29.5368L3.04429 31.636L2.56126 34.7811L5.37539 36.2743L5.63205 39.4481L8.71647 40.2506L9.70069 43.2778L12.8881 43.3489L14.5431 46.0693L17.6608 45.405L19.8996 47.672L22.7765 46.3118L25.4786 48L27.9657 46.0096L30.985 47.0305L32.9451 44.5217L36.1189 44.8239L37.4468 41.9312L40.6039 41.4914L41.2278 38.3713L44.1979 37.2166L44.0843 34.0368L46.7129 32.2164L45.8673 29.1484L48 26.7861L46.4684 23.9955ZM24.1931 43.3073C13.4294 43.3073 4.70385 34.5982 4.70385 23.8549C4.70385 13.1116 13.4294 4.40252 24.1931 4.40252C34.9567 4.40252 43.6845 13.1139 43.6845 23.8549C43.6845 34.596 34.9567 43.3073 24.1931 43.3073Z" fill="#39B54A"/>
<path d="M37.0221 23.8549C37.0221 26.3875 36.2697 28.8631 34.86 30.9689C33.4503 33.0746 31.4467 34.7158 29.1025 35.685C26.7583 36.6542 24.1788 36.9077 21.6902 36.4137C19.2017 35.9196 16.9157 34.7 15.1216 32.9093C13.3274 31.1185 12.1056 28.8369 11.6105 26.353C11.1155 23.8691 11.3696 21.2945 12.3406 18.9547C13.3116 16.615 14.9559 14.6151 17.0656 13.2081C19.1754 11.8011 21.6557 11.0501 24.1931 11.0501C27.5955 11.0501 30.8586 12.3992 33.2646 14.8006C35.6705 17.2019 37.0221 20.4589 37.0221 23.8549Z" fill="#39B54A"/>
<path d="M15.5629 10.8924L14.9147 8.79183L15.4237 8.45294L16.131 11.1825L15.7957 11.4057L15.5629 10.8924ZM13.9102 9.46046L15.6025 10.8661L15.9908 11.2758L15.6524 11.501L13.4041 9.79732L13.9102 9.46046Z" fill="white"/>
<path d="M19.1244 9.22515L19.2916 9.61882L17.9853 10.1715L17.8181 9.77786L19.1244 9.22515ZM17.1102 7.65212L18.1505 10.1016L17.6449 10.3156L16.6045 7.86607L17.1102 7.65212ZM18.5048 8.23897L18.6677 8.62255L17.5316 9.10323L17.3687 8.71965L18.5048 8.23897ZM18.2496 7.17001L18.4175 7.56537L17.1129 8.11737L16.945 7.72201L18.2496 7.17001Z" fill="white"/>
<path d="M19.5994 6.75114L20.5729 6.54656C20.7725 6.50461 20.9503 6.49839 21.1063 6.5279C21.2635 6.55715 21.3933 6.62207 21.4956 6.72265C21.598 6.82324 21.6672 6.95882 21.7031 7.12942C21.7326 7.26899 21.734 7.39391 21.7073 7.50416C21.6816 7.61297 21.6327 7.70982 21.5608 7.79471C21.4898 7.87816 21.401 7.95162 21.2946 8.0151L21.1432 8.14036L20.2969 8.3182L20.205 7.90022L20.8343 7.76798C20.9287 7.74814 21.0035 7.71498 21.0586 7.66852C21.1137 7.62206 21.1505 7.56574 21.169 7.49956C21.1887 7.43313 21.1902 7.36055 21.1736 7.28181C21.156 7.19831 21.1252 7.1294 21.0813 7.07509C21.0374 7.02078 20.9804 6.98417 20.9102 6.96528C20.8401 6.94638 20.7572 6.94698 20.6616 6.96707L20.226 7.05863L20.6869 9.24351L20.149 9.35654L19.5994 6.75114ZM21.6084 9.04985L20.7682 8.0136L21.3357 7.89059L22.1786 8.90386L22.1839 8.92891L21.6084 9.04985Z" fill="white"/>
<path d="M23.5349 6.18453L23.6741 8.84343L23.127 8.87195L22.9879 6.21305L23.5349 6.18453Z" fill="white"/>
<path d="M25.5623 6.22548L25.3215 8.87713L24.7741 8.8276L25.0149 6.17595L25.5623 6.22548ZM26.5177 7.45402L26.479 7.88018L25.2711 7.77088L25.3098 7.34472L26.5177 7.45402ZM26.7483 6.3328L26.7095 6.76077L25.3738 6.63992L25.4127 6.21194L26.7483 6.3328Z" fill="white"/>
<path d="M28.5822 6.72272L27.9608 9.31201L27.4281 9.18465L28.0495 6.59536L28.5822 6.72272Z" fill="white"/>
<path d="M30.8435 9.86571L30.6849 10.2637L29.3644 9.7393L29.523 9.34135L30.8435 9.86571ZM30.5183 7.32946L29.5313 9.80561L29.0202 9.60262L30.0072 7.12648L30.5183 7.32946ZM31.0978 8.72767L30.9432 9.11542L29.7948 8.65939L29.9494 8.27164L31.0978 8.72767ZM31.6702 7.78684L31.5109 8.18649L30.1921 7.6628L30.3514 7.26315L31.6702 7.78684Z" fill="white"/>
<path d="M32.1619 11.125L31.6737 10.811L31.909 10.4533L32.3942 10.7654C32.5153 10.8433 32.635 10.8818 32.7532 10.881C32.8721 10.8792 32.9867 10.839 33.0969 10.7606C33.2082 10.6827 33.3121 10.569 33.4087 10.4194L33.4792 10.3103C33.5533 10.1955 33.6061 10.0867 33.6377 9.9837C33.6704 9.88141 33.6823 9.78535 33.6734 9.69554C33.6646 9.60573 33.6353 9.52384 33.5857 9.44987C33.5368 9.37489 33.4677 9.30866 33.3783 9.25121L32.8763 8.92827L33.1095 8.56705L33.6116 8.88999C33.7615 8.98641 33.882 9.10019 33.9731 9.23133C34.066 9.36211 34.1276 9.50403 34.1581 9.65708C34.1886 9.81013 34.1862 9.96809 34.1508 10.131C34.1171 10.2935 34.0486 10.4546 33.9454 10.6145L33.8769 10.7206C33.7743 10.8794 33.6556 11.0082 33.5206 11.107C33.3866 11.2065 33.2435 11.274 33.0912 11.3095C32.9407 11.3446 32.7857 11.3472 32.6264 11.3172C32.4687 11.2868 32.3139 11.2228 32.1619 11.125ZM33.3806 8.7414L31.9355 10.9794L31.4735 10.6822L32.9186 8.44422L33.3806 8.7414Z" fill="white"/>
<path d="M21.9944 30.1912L16.7985 25.0043L18.8669 22.9398L21.9944 26.0615L29.5192 18.5509L31.5884 20.6154L21.9944 30.1912Z" fill="white"/>
<path d="M32.824 36.9141L33.4722 39.0147L32.9631 39.3536L32.2558 36.6241L32.5912 36.4009L32.824 36.9141ZM34.4767 38.3461L32.7844 36.9405L32.3961 36.5308L32.7344 36.3055L34.9827 38.0092L34.4767 38.3461Z" fill="white"/>
<path d="M29.2624 38.5814L29.0952 38.1877L30.4015 37.635L30.5687 38.0287L29.2624 38.5814ZM31.2767 40.1544L30.2363 37.7049L30.742 37.491L31.7824 39.9405L31.2767 40.1544ZM29.8821 39.5676L29.7192 39.184L30.8553 38.7033L31.0182 39.0869L29.8821 39.5676ZM30.1373 40.6365L29.9694 40.2412L31.274 39.6892L31.4419 40.0845L30.1373 40.6365Z" fill="white"/>
<path d="M28.7867 41.0554L27.8132 41.26C27.6136 41.3019 27.4358 41.3082 27.2798 41.2787C27.1226 41.2494 26.9928 41.1845 26.8905 41.0839C26.7881 40.9833 26.719 40.8477 26.683 40.6771C26.6535 40.5376 26.6521 40.4126 26.6788 40.3024C26.7045 40.1936 26.7534 40.0967 26.8253 40.0118C26.8964 39.9284 26.9851 39.8549 27.0915 39.7915L27.243 39.6662L28.0892 39.4884L28.1811 39.9063L27.5518 40.0386C27.4574 40.0584 27.3826 40.0916 27.3275 40.138C27.2724 40.1845 27.2356 40.2408 27.2171 40.307C27.1974 40.3734 27.1959 40.446 27.2125 40.5247C27.2301 40.6082 27.2609 40.6772 27.3048 40.7315C27.3487 40.7858 27.4057 40.8224 27.4759 40.8413C27.546 40.8602 27.6289 40.8596 27.7245 40.8395L28.1602 40.7479L27.6993 38.563L28.2371 38.45L28.7867 41.0554ZM26.7778 38.7567L27.618 39.7929L27.0504 39.916L26.2076 38.9027L26.2023 38.8776L26.7778 38.7567Z" fill="white"/>
<path d="M24.8447 41.6286L24.7113 38.966L25.2591 38.9387L25.3925 41.6012L24.8447 41.6286Z" fill="white"/>
<path d="M22.8209 41.6073L23.061 38.9447L23.6106 38.9941L23.3705 41.6566L22.8209 41.6073ZM21.8608 40.3744L21.8994 39.9465L23.1123 40.0554L23.0737 40.4833L21.8608 40.3744ZM21.63 41.5003L21.6688 41.0705L23.0099 41.191L22.9711 41.6208L21.63 41.5003Z" fill="white"/>
<path d="M19.8039 41.0838L20.4253 38.4945L20.958 38.6219L20.3367 41.2112L19.8039 41.0838Z" fill="white"/>
<path d="M17.5434 37.9408L17.702 37.5429L19.0225 38.0673L18.8639 38.4652L17.5434 37.9408ZM17.8685 40.4771L18.8555 38.0009L19.3667 38.2039L18.3797 40.6801L17.8685 40.4771ZM17.2891 39.0789L17.4437 38.6911L18.5921 39.1472L18.4375 39.5349L17.2891 39.0789ZM16.7167 40.0197L16.876 39.6201L18.1948 40.1437L18.0355 40.5434L16.7167 40.0197Z" fill="white"/>
<path d="M16.225 36.6815L16.7131 36.9955L16.4778 37.3532L15.9927 37.0412C15.8716 36.9633 15.7519 36.9247 15.6337 36.9255C15.5148 36.9274 15.4002 36.9675 15.29 37.046C15.1787 37.1238 15.0748 37.2375 14.9782 37.3871L14.9077 37.4963C14.8336 37.611 14.7807 37.7199 14.7491 37.8229C14.7165 37.9251 14.7046 38.0212 14.7135 38.111C14.7223 38.2008 14.7515 38.2827 14.8011 38.3567C14.8501 38.4317 14.9192 38.4979 15.0085 38.5553L15.5106 38.8783L15.2773 39.2395L14.7753 38.9166C14.6254 38.8201 14.5049 38.7064 14.4137 38.5752C14.3209 38.4444 14.2592 38.3025 14.2287 38.1495C14.1982 37.9964 14.2007 37.8385 14.2361 37.6756C14.2698 37.5131 14.3383 37.3519 14.4415 37.1921L14.51 37.086C14.6125 36.9272 14.7313 36.7983 14.8663 36.6995C15.0003 36.6001 15.1434 36.5326 15.2956 36.4971C15.4462 36.4619 15.6012 36.4594 15.7605 36.4894C15.9182 36.5197 16.073 36.5838 16.225 36.6815ZM15.0063 39.0652L16.4513 36.8271L16.9134 37.1243L15.4683 39.3623L15.0063 39.0652Z" fill="white"/>
<path d="M37.2285 15.2894L39.3331 14.6424L39.6726 15.1505L36.938 15.8565L36.7143 15.5218L37.2285 15.2894ZM38.6632 13.6398L37.2549 15.329L36.8444 15.7165L36.6188 15.3788L38.3257 13.1347L38.6632 13.6398Z" fill="white"/>
<path d="M38.8976 18.8502L38.5023 19.0158L37.9527 17.7091L38.348 17.5435L38.8976 18.8502ZM40.4819 16.8438L38.0222 17.8743L37.8095 17.3685L40.2691 16.338L40.4819 16.8438ZM39.8885 18.2348L39.5034 18.3961L39.0254 17.2597L39.4106 17.0983L39.8885 18.2348ZM40.9612 17.9837L40.5642 18.15L40.0154 16.8449L40.4124 16.6786L40.9612 17.9837Z" fill="white"/>
<path d="M41.3905 19.3054L41.5994 20.2785C41.6423 20.478 41.6492 20.6558 41.6201 20.812C41.5913 20.9694 41.5266 21.0994 41.4259 21.2022C41.3253 21.3049 41.1894 21.3746 41.0182 21.4112C40.8782 21.4412 40.7528 21.443 40.6419 21.4167C40.5326 21.3914 40.4352 21.3429 40.3497 21.2712C40.2656 21.2004 40.1915 21.1119 40.1274 21.0057L40.0011 20.8546L39.8195 20.0088L40.2389 19.9153L40.3739 20.5444C40.3942 20.6387 40.4277 20.7134 40.4746 20.7684C40.5214 20.8233 40.5781 20.8599 40.6446 20.8782C40.7114 20.8977 40.7843 20.8989 40.8633 20.882C40.9471 20.8641 41.0162 20.8331 41.0706 20.789C41.1249 20.7449 41.1615 20.6877 41.1802 20.6174C41.1989 20.5472 41.198 20.4643 41.1775 20.3687L41.084 19.9333L38.8917 20.4021L38.7763 19.8645L41.3905 19.3054ZM39.0895 21.3233L40.127 20.4791L40.2526 21.0464L39.2381 21.8932L39.213 21.8985L39.0895 21.3233Z" fill="white"/>
<path d="M41.9519 23.2529L39.2843 23.386L39.257 22.8392L41.9245 22.7061L41.9519 23.2529Z" fill="white"/>
<path d="M41.9306 25.2728L39.263 25.0332L39.3125 24.4846L41.98 24.7242L41.9306 25.2728ZM40.6953 26.2311L40.2666 26.1926L40.3758 24.982L40.8045 25.0205L40.6953 26.2311ZM41.8234 26.4615L41.3928 26.4228L41.5135 25.0842L41.9441 25.1229L41.8234 26.4615Z" fill="white"/>
<path d="M41.4069 28.2841L38.8127 27.6639L38.9403 27.1322L41.5345 27.7524L41.4069 28.2841Z" fill="white"/>
<path d="M38.2572 30.5404L37.8585 30.3821L38.3838 29.064L38.7826 29.2224L38.2572 30.5404ZM40.7982 30.2158L38.3174 29.2307L38.5208 28.7205L41.0016 29.7057L40.7982 30.2158ZM39.3974 30.7942L39.0089 30.6399L39.4658 29.4937L39.8543 29.648L39.3974 30.7942ZM40.34 31.3655L39.9396 31.2065L40.4643 29.8902L40.8647 30.0492L40.34 31.3655Z" fill="white"/>
<path d="M36.9955 31.8563L37.3101 31.3691L37.6685 31.6039L37.3558 32.0881C37.2778 32.209 37.2391 32.3285 37.24 32.4465C37.2418 32.5652 37.282 32.6795 37.3607 32.7896C37.4386 32.9006 37.5525 33.0044 37.7024 33.1008L37.8118 33.1711C37.9268 33.2451 38.0358 33.2978 38.139 33.3294C38.2415 33.3619 38.3377 33.3738 38.4277 33.365C38.5177 33.3561 38.5997 33.327 38.6738 33.2774C38.749 33.2286 38.8153 33.1596 38.8729 33.0705L39.1964 32.5694L39.5583 32.8021L39.2348 33.3032C39.1382 33.4529 39.0242 33.5731 38.8928 33.6641C38.7617 33.7568 38.6196 33.8183 38.4662 33.8488C38.3129 33.8792 38.1546 33.8768 37.9914 33.8414C37.8286 33.8078 37.6672 33.7394 37.507 33.6364L37.4007 33.5681C37.2416 33.4657 37.1125 33.3471 37.0135 33.2124C36.9139 33.0787 36.8463 32.9358 36.8107 32.7839C36.7755 32.6336 36.7729 32.4789 36.803 32.3199C36.8334 32.1625 36.8976 32.008 36.9955 31.8563ZM39.3836 33.0727L37.1414 31.6304L37.4391 31.1692L39.6814 32.6115L39.3836 33.0727Z" fill="white"/>
<path d="M11.1576 32.5171L9.05301 33.1642L8.71349 32.656L11.4482 31.9501L11.6718 32.2848L11.1576 32.5171ZM9.72291 34.1667L11.1312 32.4776L11.5417 32.09L11.7674 32.4278L10.0604 34.6718L9.72291 34.1667Z" fill="white"/>
<path d="M9.48856 28.9563L9.88387 28.7907L10.4334 30.0975L10.0381 30.2631L9.48856 28.9563ZM7.90425 30.9627L10.3639 29.9322L10.5766 30.4381L8.11698 31.4686L7.90425 30.9627ZM8.49759 29.5718L8.88276 29.4104L9.36068 30.5469L8.97552 30.7083L8.49759 29.5718ZM7.42491 29.8229L7.8219 29.6566L8.37074 30.9616L7.97374 31.128L7.42491 29.8229Z" fill="white"/>
<path d="M7.00846 28.4882L6.80349 27.5166C6.76147 27.3174 6.75523 27.1399 6.7848 26.9842C6.81411 26.8273 6.87915 26.6978 6.97992 26.5956C7.08069 26.4934 7.21654 26.4244 7.38745 26.3885C7.52729 26.3591 7.65244 26.3577 7.76291 26.3843C7.87192 26.41 7.96896 26.4588 8.05401 26.5306C8.13761 26.6015 8.21121 26.69 8.27481 26.7963L8.40031 26.9474L8.57848 27.792L8.15972 27.8838L8.02723 27.2557C8.00735 27.1614 7.97413 27.0868 7.92758 27.0318C7.88103 26.9768 7.8246 26.9401 7.7583 26.9216C7.69174 26.902 7.61902 26.9004 7.54014 26.917C7.45647 26.9346 7.38743 26.9653 7.33302 27.0091C7.27861 27.053 7.24194 27.1099 7.223 27.1799C7.20407 27.2499 7.20467 27.3326 7.2248 27.4281L7.31653 27.8629L9.50555 27.4029L9.61879 27.9397L7.00846 28.4882ZM9.31153 26.4831L8.27332 27.3217L8.15007 26.7552L9.16526 25.914L9.19036 25.9087L9.31153 26.4831Z" fill="white"/>
<path d="M6.44154 24.5609L9.10547 24.422L9.13405 24.9681L6.47011 25.1069L6.44154 24.5609Z" fill="white"/>
<path d="M6.48256 22.5374L9.13923 22.7777L9.08961 23.3241L6.43294 23.0837L6.48256 22.5374ZM7.71343 21.5838L8.14039 21.6224L8.03089 22.828L7.60392 22.7894L7.71343 21.5838ZM6.59008 21.3536L7.01887 21.3924L6.89779 22.7255L6.469 22.6867L6.59008 21.3536Z" fill="white"/>
<path d="M6.97999 19.5224L9.57417 20.1426L9.44657 20.6744L6.85239 20.0542L6.97999 19.5224Z" fill="white"/>
<path d="M10.1289 17.2654L10.5276 17.4237L10.0023 18.7417L9.60357 18.5834L10.1289 17.2654ZM7.58787 17.5899L10.0687 18.5751L9.86534 19.0853L7.38451 18.1001L7.58787 17.5899ZM8.98873 17.0116L9.37721 17.1659L8.92032 18.3121L8.53184 18.1578L8.98873 17.0116ZM8.04612 16.4403L8.44653 16.5993L7.92185 17.9156L7.52144 17.7566L8.04612 16.4403Z" fill="white"/>
<path d="M11.3906 15.9502L11.076 16.4375L10.7177 16.2026L11.0303 15.7184C11.1084 15.5975 11.147 15.4781 11.1462 15.36C11.1443 15.2414 11.1041 15.127 11.0255 15.017C10.9475 14.9059 10.8336 14.8022 10.6837 14.7058L10.5743 14.6354C10.4594 14.5615 10.3503 14.5087 10.2471 14.4772C10.1447 14.4446 10.0484 14.4328 9.95843 14.4416C9.86845 14.4504 9.78641 14.4796 9.7123 14.5291C9.63717 14.5779 9.57083 14.6469 9.51326 14.7361L9.18972 15.2372L8.82781 15.0044L9.15136 14.5033C9.24796 14.3537 9.36196 14.2334 9.49335 14.1424C9.62438 14.0498 9.76656 13.9882 9.9199 13.9578C10.0732 13.9273 10.2315 13.9298 10.3947 13.9651C10.5575 13.9988 10.719 14.0671 10.8791 14.1701L10.9854 14.2385C11.1445 14.3409 11.2736 14.4594 11.3726 14.5942C11.4722 14.7279 11.5399 14.8707 11.5754 15.0227C11.6106 15.1729 11.6132 15.3276 11.5832 15.4867C11.5527 15.6441 11.4886 15.7986 11.3906 15.9502ZM9.00249 14.7339L11.2448 16.1762L10.947 16.6373L8.70474 15.195L9.00249 14.7339Z" fill="white"/>
<path d="M35.6018 13.0458C35.4678 13.0456 35.3381 12.9991 35.2346 12.9141C35.1312 12.8292 35.0604 12.7111 35.0344 12.5799C35.0085 12.4487 35.0288 12.3126 35.0921 12.1948C35.1554 12.0769 35.2576 11.9846 35.3814 11.9335C35.5052 11.8824 35.6429 11.8758 35.7711 11.9147C35.8993 11.9536 36.01 12.0356 36.0843 12.1468C36.1587 12.258 36.1922 12.3915 36.179 12.5246C36.1658 12.6576 36.1069 12.782 36.0121 12.8766C35.9583 12.9304 35.8943 12.973 35.8239 13.0021C35.7534 13.0311 35.678 13.046 35.6018 13.0458Z" fill="white"/>
<path d="M12.8623 35.7423C12.7283 35.7423 12.5985 35.6959 12.4949 35.611C12.3914 35.5262 12.3205 35.4081 12.2944 35.2769C12.2682 35.1457 12.2885 35.0096 12.3517 34.8917C12.4149 34.7737 12.5171 34.6813 12.6409 34.6301C12.7647 34.579 12.9024 34.5722 13.0306 34.6111C13.1589 34.6499 13.2696 34.7319 13.344 34.8431C13.4185 34.9543 13.452 35.0879 13.4388 35.221C13.4257 35.3541 13.3667 35.4785 13.2719 35.573C13.2183 35.6269 13.1545 35.6696 13.0841 35.6987C13.0138 35.7278 12.9384 35.7426 12.8623 35.7423Z" fill="white"/>
<path d="M12.8623 13.0458C12.9963 13.0458 13.1262 12.9994 13.2297 12.9146C13.3333 12.8297 13.4042 12.7116 13.4303 12.5804C13.4564 12.4493 13.4362 12.3131 13.373 12.1952C13.3098 12.0772 13.2076 11.9848 13.0838 11.9336C12.96 11.8825 12.8223 11.8757 12.694 11.9146C12.5658 11.9534 12.4551 12.0354 12.3806 12.1467C12.3062 12.2579 12.2727 12.3914 12.2859 12.5245C12.299 12.6576 12.358 12.782 12.4527 12.8766C12.5064 12.9304 12.5702 12.9731 12.6406 13.0022C12.7109 13.0312 12.7862 13.0461 12.8623 13.0458Z" fill="white"/>
<path d="M35.6018 35.7423C35.7358 35.7423 35.8656 35.6959 35.9692 35.611C36.0727 35.5262 36.1436 35.4081 36.1697 35.2769C36.1959 35.1457 36.1756 35.0096 36.1124 34.8917C36.0492 34.7737 35.947 34.6813 35.8232 34.6301C35.6994 34.579 35.5617 34.5722 35.4335 34.6111C35.3052 34.6499 35.1945 34.7319 35.1201 34.8431C35.0456 34.9543 35.0121 35.0879 35.0253 35.221C35.0384 35.3541 35.0974 35.4785 35.1922 35.573C35.2458 35.6269 35.3097 35.6696 35.38 35.6986C35.4503 35.7277 35.5257 35.7425 35.6018 35.7423Z" fill="white"/>
</svg>
